<?xml version="1.0" encoding="UTF-8"?>
<svg version="1.1" xmlns="http://www.w3.org/2000/svg" width="1848" height="752">
<path d="M0 0 C609.84 0 1219.68 0 1848 0 C1848 248.16 1848 496.32 1848 752 C1238.16 752 628.32 752 0 752 C0 503.84 0 255.68 0 0 Z " fill="#6F26A8" transform="translate(0,0)"/>
<path d="M0 0 C213.84 0 427.68 0 648 0 C648 248.16 648 496.32 648 752 C544.2975 752.0825 440.595 752.165 333.75 752.25 C301.01006836 752.28641602 268.27013672 752.32283203 234.53808594 752.36035156 C194.54736328 752.37841797 194.54736328 752.37841797 175.8237915 752.3817749 C161.8923364 752.38574516 147.96095947 752.40296198 134.02952625 752.42669371 C119.79935646 752.45060467 105.56923558 752.45932387 91.33904649 752.4537798 C82.89554185 752.45092665 74.45222036 752.45870032 66.00874989 752.48323038 C60.41098462 752.49837792 54.81333913 752.49857765 49.21556517 752.48734136 C46.04174281 752.48137595 42.86833176 752.48350248 39.69453478 752.49953032 C19.57890836 752.59504079 -0.48645909 751.19744244 -20 746 C-21.82919396 745.68340874 -23.66259418 745.3898026 -25.5 745.125 C-33.1239065 743.90945368 -40.53602248 741.9416428 -48 740 C-49.33283564 739.66468217 -50.66586972 739.33012918 -52 739 C-52 738.34 -52 737.68 -52 737 C-52.90878906 736.94392578 -52.90878906 736.94392578 -53.8359375 736.88671875 C-62.85275028 736.17924575 -70.68034294 733.61400781 -78.99609375 730.18359375 C-85.58734767 727.58651971 -92.31006759 725.32828274 -99 723 C-99 722.34 -99 721.68 -99 721 C-99.61746094 720.84144531 -100.23492188 720.68289063 -100.87109375 720.51953125 C-106.29455296 719.02539713 -110.85638753 717.12978454 -115.6875 714.265625 C-119.00429969 712.45034949 -122.48205235 711.18166311 -126.03125 709.89453125 C-128 709 -128 709 -129 707 C-131.32671865 705.98470459 -133.6603447 704.98511802 -136 704 C-136.66 703.34 -137.32 702.68 -138 702 C-139.72210762 701.25267028 -141.44532039 700.50748235 -143.1796875 699.7890625 C-145.61644721 698.73278469 -147.82154964 697.51831389 -150 696 C-150 695.34 -150 694.68 -150 694 C-150.78375 693.814375 -151.5675 693.62875 -152.375 693.4375 C-157.43051931 691.4327251 -161.8312232 688.49320428 -166 685 C-166 684.34 -166 683.68 -166 683 C-167.07894531 682.61328125 -167.07894531 682.61328125 -168.1796875 682.21875 C-171.14797801 680.93605383 -173.50627595 679.38996598 -176.125 677.5 C-176.97320313 676.8915625 -177.82140625 676.283125 -178.6953125 675.65625 C-179.45585938 675.1096875 -180.21640625 674.563125 -181 674 C-181.99 673.34 -182.98 672.68 -184 672 C-184 671.34 -184 670.68 -184 670 C-184.556875 669.7525 -185.11375 669.505 -185.6875 669.25 C-188.42410913 667.77075182 -190.67650869 666.06532561 -193 664 C-193 663.34 -193 662.68 -193 662 C-193.598125 661.896875 -194.19625 661.79375 -194.8125 661.6875 C-197.31258286 660.90175967 -198.37535082 660.03081147 -200 658 C-200 657.34 -200 656.68 -200 656 C-200.53625 655.7525 -201.0725 655.505 -201.625 655.25 C-204.5823982 653.69347463 -207.29724051 651.96564327 -210 650 C-210 649.34 -210 648.68 -210 648 C-210.66 648 -211.32 648 -212 648 C-213.35803676 646.28340568 -214.49830258 644.46815118 -215.68359375 642.62890625 C-217.00013286 640.70046284 -217.00013286 640.70046284 -220 640 C-221.90234375 637.85546875 -221.90234375 637.85546875 -223.9375 635.1875 C-225.95090626 632.56114925 -227.88369668 630.1134814 -230.25390625 627.80078125 C-232 626 -232 626 -232 624 C-232.66 624 -233.32 624 -234 624 C-234.2475 623.21625 -234.495 622.4325 -234.75 621.625 C-236.19494285 618.59062001 -237.05565819 618.32970275 -240 617 C-240.495 615.515 -240.495 615.515 -241 614 C-242.13112149 612.90315492 -243.26360743 611.80768735 -244.40234375 610.71875 C-248.67534911 606.12187382 -252.3881388 600.75393371 -255.5546875 595.34375 C-256.88877084 593.18037161 -258.21132694 591.77023313 -260 590 C-261.120495 588.35808653 -262.1999934 586.68786108 -263.25 585 C-265.11566562 582.01177287 -266.981323 579.02862787 -268.90625 576.078125 C-274.07797908 568.14521853 -274.07797908 568.14521853 -275.75 564 C-276.72895646 561.08040631 -276.72895646 561.08040631 -278.37890625 559.69140625 C-280.60206229 557.37182416 -281.77211266 554.81370687 -283.1875 551.9375 C-283.71730469 550.87402344 -284.24710938 549.81054688 -284.79296875 548.71484375 C-286 546 -286 546 -286 544 C-286.66 544 -287.32 544 -288 544 C-288.24234375 543.27554688 -288.4846875 542.55109375 -288.734375 541.8046875 C-290.24603353 537.44413404 -291.59805818 533.59717071 -294.1875 529.75 C-296.34580405 526.47533179 -296.69037243 523.87034462 -297 520 C-297.66 520 -298.32 520 -299 520 C-299.17015625 519.29875 -299.3403125 518.5975 -299.515625 517.875 C-299.87914062 516.451875 -299.87914062 516.451875 -300.25 515 C-300.48203125 514.071875 -300.7140625 513.14375 -300.953125 512.1875 C-301.79477138 509.62487519 -302.69659227 507.53788766 -303.9296875 505.16796875 C-306.07631928 501.00393716 -307.52165387 496.78876963 -308.875 492.3125 C-309.12548096 491.49507324 -309.37596191 490.67764648 -309.6340332 489.83544922 C-310.16136156 488.1041831 -310.68481551 486.37173262 -311.20458984 484.63818359 C-311.99075333 482.03066898 -312.80120123 479.43157268 -313.61328125 476.83203125 C-316.8761429 466.1610498 -319.02861887 455.71501672 -320.359375 444.63671875 C-320.72420905 441.70696358 -321.22042895 438.91584096 -321.9765625 436.0625 C-326.88689317 417.38801403 -326.29880148 397.45618364 -326.3125 378.3125 C-326.31590393 377.19444977 -326.31930786 376.07639954 -326.32281494 374.92446899 C-326.35017597 359.18568292 -325.58229352 343.65808533 -324 328 C-323.93154877 327.29644379 -323.86309753 326.59288757 -323.79257202 325.86801147 C-322.27698224 310.41306571 -319.412756 295.45658337 -315.5625 280.4375 C-315.3754953 279.70083099 -315.1884906 278.96416199 -314.99581909 278.20516968 C-312.90437493 270.04610353 -310.45910464 262.25501535 -307.06860352 254.52172852 C-305.7831465 251.48826141 -304.9137774 248.46091061 -304.1875 245.25 C-303.95417969 244.24453125 -303.72085938 243.2390625 -303.48046875 242.203125 C-303.32191406 241.47609375 -303.16335938 240.7490625 -303 240 C-302.34 240 -301.68 240 -301 240 C-300.86851562 239.45214844 -300.73703125 238.90429688 -300.6015625 238.33984375 C-298.36153914 229.62702561 -295.08700264 222.02984515 -290.67578125 214.19921875 C-288.61508026 210.26515322 -287.17292 206.26995766 -285.82421875 202.046875 C-285 200 -285 200 -283 199 C-282.31998046 197.36795309 -281.64333057 195.73441488 -280.984375 194.09375 C-279.86459975 191.71200582 -278.49679541 189.66368446 -277 187.5 C-274.43510895 183.78026994 -272.61366405 180.21345612 -271 176 C-270.34 176 -269.68 176 -269 176 C-268.7628125 175.32195312 -268.525625 174.64390625 -268.28125 173.9453125 C-266.704062 170.31970351 -264.67060982 167.16905644 -262.5 163.875 C-262.09652344 163.25496094 -261.69304687 162.63492188 -261.27734375 161.99609375 C-259.53374251 159.32027006 -257.77158238 156.65737357 -256 154 C-255.34 154 -254.68 154 -254 154 C-253.7525 153.278125 -253.505 152.55625 -253.25 151.8125 C-251.8600755 148.68516987 -250.1778091 146.64868674 -248 144 C-246.17700455 141.34911176 -244.37413388 138.6862046 -242.5859375 136.01171875 C-242.06257812 135.34785156 -241.53921875 134.68398437 -241 134 C-240.34 134 -239.68 134 -239 134 C-238.773125 133.278125 -238.54625 132.55625 -238.3125 131.8125 C-236.11909319 127.11234255 -232.30085553 124.24526324 -228.375 121 C-226.2412626 119.20437088 -224.99534944 117.99211426 -223.5625 115.5625 C-221.1633114 111.6278307 -217.69742693 108.72400667 -214 106 C-213.34 106 -212.68 106 -212 106 C-211.75894531 105.24589844 -211.51789063 104.49179688 -211.26953125 103.71484375 C-209.81321354 100.60056435 -208.47647784 99.51712817 -205.6875 97.5625 C-202.78744886 95.43517517 -200.34646659 93.45787941 -198.125 90.625 C-196 88 -196 88 -193 87 C-192.154375 86.154375 -191.30875 85.30875 -190.4375 84.4375 C-189.2309375 83.2309375 -189.2309375 83.2309375 -188 82 C-187.34 82 -186.68 82 -186 82 C-186 81.34 -186 80.68 -186 80 C-184.30508386 78.59731078 -182.542165 77.27609654 -180.75 76 C-179.77546875 75.29875 -178.8009375 74.5975 -177.796875 73.875 C-175 72 -175 72 -172.7890625 70.90625 C-170.7175259 69.98262859 -170.7175259 69.98262859 -168.625 67.5 C-165.80205767 64.8114835 -163.73328751 63.95502704 -160 63 C-160 62.34 -160 61.68 -160 61 C-156.39614731 58.16372113 -152.29859665 56.03506212 -148.0625 54.3125 C-144.90580009 53.34988538 -144.90580009 53.34988538 -144 51 C-141.06295544 48.9904432 -139.60777515 48 -136 48 C-136 47.34 -136 46.68 -136 46 C-134.04414675 44.99515796 -132.08523763 43.99626195 -130.125 43 C-129.03445313 42.443125 -127.94390625 41.88625 -126.8203125 41.3125 C-124 40 -124 40 -122 40 C-122 39.34 -122 38.68 -122 38 C-120.9275 37.62875 -119.855 37.2575 -118.75 36.875 C-115.07211505 35.50391568 -111.62039894 33.84632762 -108.125 32.0625 C-103.67579561 29.7988697 -99.23068355 27.7910413 -94.5703125 26.0078125 C-92.69452729 25.27232225 -90.83709215 24.48952876 -88.9921875 23.6796875 C-83.22404591 21.14980084 -78.30475624 19.36373594 -72 19 C-72 18.34 -72 17.68 -72 17 C-54.8245373 11.59578206 -37.73955773 7.10645247 -20 4 C-18.9373291 3.81163574 -17.8746582 3.62327148 -16.77978516 3.42919922 C-15.72194824 3.24631348 -14.66411133 3.06342773 -13.57421875 2.875 C-12.61990967 2.71 -11.66560059 2.545 -10.68237305 2.375 C-7.07117085 1.87014821 -3.63958024 1.86001614 0 2 C0 1.34 0 0.68 0 0 Z " fill="#9D17C4" transform="translate(1200,0)"/>
<path d="M0 0 C12.87 0 25.74 0 39 0 C39 0.66 39 1.32 39 2 C37.88109375 2.14695313 36.7621875 2.29390625 35.609375 2.4453125 C15.80780331 5.16676575 -3.92446156 9.01261599 -22.9609375 15.17114258 C-26.51516728 16.31604423 -29.22595603 17 -33 17 C-33 17.66 -33 18.32 -33 19 C-33.68964844 19.17015625 -34.37929687 19.3403125 -35.08984375 19.515625 C-41.40433359 21.14405311 -47.10277609 23.25474059 -53 26 C-54.76336225 26.78777426 -56.5343831 27.55862003 -58.3125 28.3125 C-59.11300781 28.65925781 -59.91351562 29.00601562 -60.73828125 29.36328125 C-63.26349722 30.0741797 -64.55823549 29.86607208 -67 29 C-62.39787802 25.99157581 -57.80087041 24.6402452 -52.546875 23.16015625 C-49.82638988 22.27391583 -49.82638988 22.27391583 -49.140625 19.87109375 C-49.07101562 18.94490234 -49.07101562 18.94490234 -49 18 C-48.01 18 -47.02 18 -46 18 C-46 18.66 -46 19.32 -46 20 C-43.13275314 19.42655063 -42.1385485 19.1385485 -40 17 C-36.44775544 16.1592581 -32.87683429 15.52889969 -29.28515625 14.87890625 C-26.0605128 14.31881114 -26.0605128 14.31881114 -24.56396484 12.51147461 C-22.62503864 10.6376232 -21.32659494 10.40102769 -18.69140625 9.9375 C-17.86189453 9.78023437 -17.03238281 9.62296875 -16.17773438 9.4609375 C-15.31470703 9.30882812 -14.45167969 9.15671875 -13.5625 9 C-6.08273508 8.00872939 -6.08273508 8.00872939 0 4 C0 3.01 0 2.02 0 1 C0 0.67 0 0.34 0 0 Z " fill="#611099" transform="translate(1161,0)"/>
<path d="M0 0 C0.66 0 1.32 0 2 0 C1.77213542 3.64583333 1.54427083 7.29166667 1.31640625 10.9375 C1.2697583 11.7102124 1.22311035 12.4829248 1.17504883 13.27905273 C1.04719411 15.26641793 0.90432565 17.25283344 0.75268555 19.23852539 C-0.16165665 31.96360632 -0.28200517 44.68300766 -0.3125 57.4375 C-0.31611542 58.60154358 -0.31973083 59.76558716 -0.32345581 60.96490479 C-0.34749968 80.28191284 0.90529278 98.94294488 4 118 C4.34384136 120.33201699 4.67290459 122.66557173 5 125 C2 121.25 2 121.25 2 119 C1.34 119 0.68 119 0 119 C-0.06058594 117.86820312 -0.12117187 116.73640625 -0.18359375 115.5703125 C-0.26799917 114.08852855 -0.35264717 112.6067584 -0.4375 111.125 C-0.47681641 110.37863281 -0.51613281 109.63226563 -0.55664062 108.86328125 C-0.71573624 104.80013136 -0.71573624 104.80013136 -2 101 C-1.72057545 99.32345271 -1.39171753 97.65391846 -1 96 C-1.66 96 -2.32 96 -3 96 C-3.02319031 85.80330831 -3.0409492 75.60662291 -3.05181217 65.4099102 C-3.05702636 60.67495669 -3.06409742 55.94002124 -3.07543945 51.20507812 C-3.08632037 46.63393095 -3.09228788 42.06280113 -3.09487724 37.491642 C-3.09672211 35.74937797 -3.10032465 34.00711487 -3.10573006 32.26485825 C-3.11300955 29.82091991 -3.11398803 27.37705294 -3.11352539 24.93310547 C-3.11712067 24.21596878 -3.12071594 23.49883209 -3.12442017 22.75996399 C-3.1161898 18.73079384 -2.77307201 14.95265142 -2 11 C-1.82339844 10.01257813 -1.64679687 9.02515625 -1.46484375 8.0078125 C-1.29082031 7.05648438 -1.11679687 6.10515625 -0.9375 5.125 C-0.67259766 3.67480469 -0.67259766 3.67480469 -0.40234375 2.1953125 C-0.26957031 1.47085937 -0.13679687 0.74640625 0 0 Z " fill="#6E17A2" transform="translate(875,320)"/>
<path d="M0 0 C-2.17465245 2.17465245 -4.13905228 3.23672979 -6.875 4.625 C-7.73867187 5.07101563 -8.60234375 5.51703125 -9.4921875 5.9765625 C-12 7 -12 7 -16 7 C-16 7.66 -16 8.32 -16 9 C-17.95585325 10.00484204 -19.91476237 11.00373805 -21.875 12 C-23.51082031 12.8353125 -23.51082031 12.8353125 -25.1796875 13.6875 C-28 15 -28 15 -30 15 C-30 15.66 -30 16.32 -30 17 C-32.90548882 19.04169485 -34.40142046 20 -38 20 C-38.495 21.485 -38.495 21.485 -39 23 C-41.109375 24.31640625 -41.109375 24.31640625 -43.75 25.5625 C-45.04164062 26.18318359 -45.04164062 26.18318359 -46.359375 26.81640625 C-48.88270971 27.94742758 -51.42428793 28.99473108 -54 30 C-54 30.66 -54 31.32 -54 32 C-55.6796875 33.2890625 -55.6796875 33.2890625 -57.875 34.625 C-58.95394531 35.29402344 -58.95394531 35.29402344 -60.0546875 35.9765625 C-62 37 -62 37 -64 37 C-64.185625 37.5775 -64.37125 38.155 -64.5625 38.75 C-66.30575924 41.47857968 -68.36308853 42.50155898 -71.1875 43.984375 C-73.25328616 45.07712579 -73.25328616 45.07712579 -75.8125 47.25 C-78 49 -78 49 -80 49 C-80 49.66 -80 50.32 -80 51 C-82.31 52.32 -84.62 53.64 -87 55 C-86.375 52.625 -86.375 52.625 -85 50 C-83 49.33333333 -81 48.66666667 -79 48 C-78.71125 47.21625 -78.4225 46.4325 -78.125 45.625 C-76.57545081 42.00938522 -74.4466245 41.52302984 -70.96484375 39.98046875 C-68.49127942 38.7461454 -66.90409714 36.97461926 -65 35 C-64.01 35 -63.02 35 -62 35 C-62 34.01 -62 33.02 -62 32 C-58.535 31.505 -58.535 31.505 -55 31 C-54.773125 30.21625 -54.54625 29.4325 -54.3125 28.625 C-52.62560451 25.25120903 -51.49035151 25.24101387 -48 24 C-46.31516968 22.80117843 -44.63170695 21.60007729 -42.96875 20.37109375 C-38.63657951 17.35404644 -34.01243155 14.67081052 -29 13 C-28.67 12.01 -28.34 11.02 -28 10 C-26.02 10 -24.04 10 -22 10 C-22.04125 9.21625 -22.0825 8.4325 -22.125 7.625 C-22 5 -22 5 -20 3 C-18.7315625 3.309375 -18.7315625 3.309375 -17.4375 3.625 C-13.10754446 4.09735879 -10.94548006 2.80375371 -7.125 0.92578125 C-4.64215713 -0.15589846 -2.68311367 -0.34620822 0 0 Z " fill="#6A129E" transform="translate(1094,31)"/>
<path d="M0 0 C-1.49671541 4.49014624 -3.83368341 8.47848764 -7 12 C-7.66 12 -8.32 12 -9 12 C-9.309375 12.78375 -9.61875 13.5675 -9.9375 14.375 C-11 17 -11 17 -12 19 C-12.66 19 -13.32 19 -14 19 C-14.24878906 19.52722656 -14.49757813 20.05445313 -14.75390625 20.59765625 C-16.33366027 23.64326353 -18.12796445 26.52269878 -19.9375 29.4375 C-22.83891717 34.10933333 -22.83891717 34.10933333 -25.62890625 38.84765625 C-27 41 -27 41 -29 42 C-29.433125 43.36125 -29.433125 43.36125 -29.875 44.75 C-31.09144243 48.26416701 -32.64188328 50.15638866 -35 53 C-37.43220486 56.81574168 -39.45196903 60.74291484 -41 65 C-41.66 65 -42.32 65 -43 65 C-43.66 66.65 -44.32 68.3 -45 70 C-46 67 -46 67 -45.36669922 65.1940918 C-44.84100342 64.20662964 -44.84100342 64.20662964 -44.3046875 63.19921875 C-43.72460938 62.10383789 -43.72460938 62.10383789 -43.1328125 60.98632812 C-42.71773437 60.22771484 -42.30265625 59.46910156 -41.875 58.6875 C-41.483125 57.94048828 -41.09125 57.19347656 -40.6875 56.42382812 C-38.81390097 52.93685214 -36.92389236 49.75561308 -34.328125 46.7578125 C-32.1789652 44.21199569 -31.03904772 42.26540996 -29.875 39.1875 C-28.9921875 36.85546875 -28.9921875 36.85546875 -28 35 C-26.515 34.505 -26.515 34.505 -25 34 C-24.64587656 32.67203709 -24.31478446 31.33783393 -24 30 C-23.525625 29.566875 -23.05125 29.13375 -22.5625 28.6875 C-20.69662718 26.94812036 -20.69662718 26.94812036 -20.1875 23.625 C-18.65792729 18.95577803 -16.87245001 17.88373937 -13 15 C-12.67 14.34 -12.34 13.68 -12 13 C-12.66 13 -13.32 13 -14 13 C-13.67 11.68 -13.34 10.36 -13 9 C-11.68 9.66 -10.36 10.32 -9 11 C-8.84337891 10.12601563 -8.84337891 10.12601563 -8.68359375 9.234375 C-7.89706383 6.66354577 -6.82434109 5.2659942 -5.0625 3.25 C-4.53785156 2.63640625 -4.01320313 2.0228125 -3.47265625 1.390625 C-2 0 -2 0 0 0 Z " fill="#6B16A0" transform="translate(958,135)"/>
<path d="M0 0 C1 2 1 2 0.3984375 3.9609375 C0.06070313 4.75757813 -0.27703125 5.55421875 -0.625 6.375 C-0.99753906 7.26703125 -1.37007812 8.1590625 -1.75390625 9.078125 C-2.16511719 10.04234375 -2.57632813 11.0065625 -3 12 C-3.85566621 14.04103866 -4.70981901 16.08271241 -5.5625 18.125 C-5.98015625 19.12273437 -6.3978125 20.12046875 -6.828125 21.1484375 C-8.30312924 24.73761449 -9.66834641 28.35547439 -11 32 C-11.66 32 -12.32 32 -13 32 C-13.07476563 32.680625 -13.14953125 33.36125 -13.2265625 34.0625 C-14.05996095 40.20677094 -15.51222646 45.75075924 -17.8125 51.5 C-21.51220208 60.75611496 -23.75516789 70.30550379 -26 80 C-26.66 80 -27.32 80 -28 80 C-28.33 80.99 -28.66 81.98 -29 83 C-28.62934461 76.99282636 -27.74232084 71.55889035 -25.8828125 65.8359375 C-25.01475529 63.04739975 -24.27938409 60.24007447 -23.56347656 57.40917969 C-21.92339112 50.95434047 -19.86920205 45.0133693 -17 39 C-14.40841 32.83251418 -12.67641062 26.46785375 -11 20 C-10.34 20 -9.68 20 -9 20 C-8.87310791 19.42024414 -8.74621582 18.84048828 -8.61547852 18.24316406 C-8.00352996 16.01286525 -7.19815816 14.16780336 -6.15234375 12.109375 C-5.79462891 11.40039062 -5.43691406 10.69140625 -5.06835938 9.9609375 C-4.69517578 9.23132813 -4.32199219 8.50171875 -3.9375 7.75 C-3.56044922 7.00492188 -3.18339844 6.25984375 -2.79492188 5.4921875 C-1.86689327 3.65962469 -0.93392821 1.82956324 0 0 Z " fill="#7016A3" transform="translate(910,208)"/>
<path d="M0 0 C-0.721875 0.556875 -1.44375 1.11375 -2.1875 1.6875 C-5.79251871 4.6516265 -8.98315603 7.92505066 -12.1875 11.3125 C-14 13 -14 13 -16 13 C-16.165 13.70125 -16.33 14.4025 -16.5 15.125 C-18.38415658 18.7363001 -20.72361012 20.28548737 -24.02734375 22.5703125 C-26.82658815 24.5990718 -28.67266836 26.41973027 -30.375 29.4375 C-32.22634301 32.35692552 -34.2872006 33.88269315 -37 36 C-37.721875 36.9075 -38.44375 37.815 -39.1875 38.75 C-39.785625 39.4925 -40.38375 40.235 -41 41 C-41.66 41 -42.32 41 -43 41 C-43.4021875 42.2065625 -43.4021875 42.2065625 -43.8125 43.4375 C-44.4003125 44.7059375 -44.4003125 44.7059375 -45 46 C-46.485 46.495 -46.485 46.495 -48 47 C-47.3125 43.625 -47.3125 43.625 -46 40 C-44.35448038 39.28272222 -42.68577711 38.61674772 -41 38 C-39.33333333 35.08333333 -39.33333333 35.08333333 -38 32 C-36.4375 30.125 -36.4375 30.125 -35 29 C-34.34 29 -33.68 29 -33 29 C-33 27.35 -33 25.7 -33 24 C-31.576875 23.87625 -31.576875 23.87625 -30.125 23.75 C-29.09375 23.5025 -28.0625 23.255 -27 23 C-25.93572702 21.15344766 -25.93572702 21.15344766 -25 19 C-24.06405756 17.71731566 -23.08360969 16.46597795 -22.0625 15.25 C-21.55847656 14.63640625 -21.05445313 14.0228125 -20.53515625 13.390625 C-19 12 -19 12 -16 12 C-16 11.34 -16 10.68 -16 10 C-14.68 9.67 -13.36 9.34 -12 9 C-12 8.34 -12 7.68 -12 7 C-11.34 7 -10.68 7 -10 7 C-9.71125 6.401875 -9.4225 5.80375 -9.125 5.1875 C-6.75938158 0.5876864 -5.39226195 -1.79742065 0 0 Z " fill="#6A14A0" transform="translate(1006,88)"/>
<path d="M0 0 C12.87 0 25.74 0 39 0 C39 0.66 39 1.32 39 2 C35.0358831 2.57777225 31.07064413 3.14706632 27.10424805 3.70898438 C25.75887325 3.90074412 24.4138096 4.09470165 23.0690918 4.29101562 C15.65438057 5.37192556 8.49744672 6.26335707 1 6 C1 5.01 1 4.02 1 3 C0.67 2.01 0.34 1.02 0 0 Z " fill="#561295" transform="translate(1161,0)"/>
<path d="M0 0 C0.66 0 1.32 0 2 0 C1.77213542 3.64583333 1.54427083 7.29166667 1.31640625 10.9375 C1.26943604 11.70449219 1.22246582 12.47148437 1.17407227 13.26171875 C1.04408678 15.30648334 0.90509111 17.35067882 0.76147461 19.39453125 C0.00208519 30.59180268 -0.31424839 41.78105358 -0.5625 53 C-0.60583546 54.85417333 -0.64945365 56.70834008 -0.69335938 58.5625 C-0.79882056 63.04159772 -0.90049702 67.52076613 -1 72 C-1.33 72 -1.66 72 -2 72 C-2.02312684 63.67271053 -2.04091683 55.34543437 -2.05181217 47.01812077 C-2.05704026 43.15179882 -2.06413654 39.28549879 -2.07543945 35.41918945 C-2.086271 31.69096599 -2.0922774 27.96276366 -2.09487724 24.23452568 C-2.09673101 22.80910344 -2.10035071 21.38368241 -2.10573006 19.95826912 C-2.11294393 17.96836592 -2.11340808 15.97844166 -2.11352539 13.98852539 C-2.115746 12.85379288 -2.11796661 11.71906036 -2.12025452 10.54994202 C-2 8 -2 8 -1 7 C-0.63239269 4.67182036 -0.29758419 2.3381615 0 0 Z " fill="#7B16A8" transform="translate(875,320)"/>
<path d="M0 0 C0.33 0.66 0.66 1.32 1 2 C0.25556641 2.63615234 0.25556641 2.63615234 -0.50390625 3.28515625 C-7.20410952 9.06996173 -13.14466426 14.55515187 -18 22 C-22.375 26.6875 -22.375 26.6875 -25 28 C-23.52988355 20.79642942 -20.13680485 16.09120323 -14 12 C-13.34064453 10.81857422 -13.34064453 10.81857422 -12.66796875 9.61328125 C-10.63404662 6.42664448 -8.53775781 5.12265469 -5.3125 3.1875 C-4.31863281 2.58292969 -3.32476563 1.97835937 -2.30078125 1.35546875 C-1.54152344 0.90816406 -0.78226563 0.46085937 0 0 Z M-27 28 C-26.34 28.33 -25.68 28.66 -25 29 C-26.32 30.32 -27.64 31.64 -29 33 C-29 31.68 -29 30.36 -29 29 C-28.34 28.67 -27.68 28.34 -27 28 Z " fill="#A518BE" transform="translate(989,106)"/>
<path d="M0 0 C11.81451229 0.51912251 23.33294752 2.11668899 35 4 C35 4.33 35 4.66 35 5 C23.78 5 12.56 5 1 5 C0.67 3.35 0.34 1.7 0 0 Z " fill="#561295" transform="translate(1181,747)"/>
<path d="M0 0 C-2.17465245 2.17465245 -4.13905228 3.23672979 -6.875 4.625 C-7.73867187 5.07101563 -8.60234375 5.51703125 -9.4921875 5.9765625 C-12 7 -12 7 -16 7 C-16 7.66 -16 8.32 -16 9 C-24.261959 13.59225513 -24.261959 13.59225513 -29 13 C-28.67 12.01 -28.34 11.02 -28 10 C-26.02 10 -24.04 10 -22 10 C-22.04125 9.21625 -22.0825 8.4325 -22.125 7.625 C-22 5 -22 5 -20 3 C-18.7315625 3.309375 -18.7315625 3.309375 -17.4375 3.625 C-13.10754446 4.09735879 -10.94548006 2.80375371 -7.125 0.92578125 C-4.64215713 -0.15589846 -2.68311367 -0.34620822 0 0 Z " fill="#63129B" transform="translate(1094,31)"/>
<path d="M0 0 C0.99 0.33 1.98 0.66 3 1 C2.566875 1.8353125 2.566875 1.8353125 2.125 2.6875 C0.95710257 5.08817805 -0.02959179 7.51332896 -1 10 C-2.86876697 14.71219258 -4.82483065 19.38618058 -6.78125 24.0625 C-7.87564256 26.70026668 -8.94613678 29.34582596 -10 32 C-10.33 32 -10.66 32 -11 32 C-10.60843685 26.04553966 -9.58279657 21.45257053 -7 16 C-6.32475203 14.31591542 -5.65860189 12.62816385 -5 10.9375 C-3.50761596 7.17784021 -1.88331183 3.57829247 0 0 Z " fill="#A819BF" transform="translate(909,214)"/>
<path d="M0 0 C-0.33 1.32 -0.66 2.64 -1 4 C-3.31 3.67 -5.62 3.34 -8 3 C-8 2.34 -8 1.68 -8 1 C-9.13308594 1.44472656 -9.13308594 1.44472656 -10.2890625 1.8984375 C-15.26165763 3.37451311 -20.23806971 3.97542688 -25.375 4.625 C-26.90833984 4.82609375 -26.90833984 4.82609375 -28.47265625 5.03125 C-30.98113278 5.35946188 -33.49018513 5.68221324 -36 6 C-36 5.34 -36 4.68 -36 4 C-23.82951129 0.19247281 -12.71024409 -0.46882048 0 0 Z " fill="#A71BBE" transform="translate(1200,4)"/>
<path d="M0 0 C1.32 0.33 2.64 0.66 4 1 C2.25 5.875 2.25 5.875 0 7 C-1.00928865 8.7581157 -2.01576842 10.51815265 -2.98828125 12.296875 C-4.1017433 14.17127444 -5.46548758 15.46548758 -7 17 C-8.19027984 19.59915538 -8.19027984 19.59915538 -9 22 C-9.66 22 -10.32 22 -11 22 C-8.89811862 13.32496229 -5.32490675 7.11932738 0 0 Z " fill="#B015C0" transform="translate(944,154)"/>
<path d="M0 0 C0.99 0 1.98 0 3 0 C3 0.66 3 1.32 3 2 C3.66 2 4.32 2 5 2 C4.67 6.29 4.34 10.58 4 15 C3.34 15 2.68 15 2 15 C1.67 16.32 1.34 17.64 1 19 C0.1031286 16.3093858 -0.27859126 14.11102904 -0.5625 11.3125 C-0.64628906 10.50425781 -0.73007812 9.69601562 -0.81640625 8.86328125 C-0.87699219 8.24839844 -0.93757812 7.63351562 -1 7 C-0.34 7 0.32 7 1 7 C0.67 4.69 0.34 2.38 0 0 Z " fill="#5D1E9E" transform="translate(873,305)"/>
<path d="M0 0 C1.17687497 3.67773429 1 7.1685924 1 11 C1.33 11.33 1.66 11.66 2 12 C2.125 15 2.125 15 2 18 C1.67 18.33 1.34 18.66 1 19 C0.84259395 20.70563778 0.74906608 22.41727244 0.68359375 24.12890625 C0.64169922 25.16337891 0.59980469 26.19785156 0.55664062 27.26367188 C0.51732422 28.35228516 0.47800781 29.44089844 0.4375 30.5625 C0.39431641 31.65498047 0.35113281 32.74746094 0.30664062 33.87304688 C0.20017932 36.58189564 0.09816484 39.29083992 0 42 C-0.33 42 -0.66 42 -1 42 C-1.02467467 36.34000977 -1.04284788 30.68005068 -1.05493164 25.02001953 C-1.05996787 23.09358169 -1.06679712 21.16714769 -1.07543945 19.24072266 C-1.08753608 16.47557632 -1.09323533 13.71048042 -1.09765625 10.9453125 C-1.10281754 10.0806839 -1.10797882 9.2160553 -1.11329651 8.32522583 C-1.11387171 2.22774341 -1.11387171 2.22774341 0 0 Z " fill="#B216C2" transform="translate(876,341)"/>
<path d="M0 0 C-1.54747532 4.01061652 -4.11690054 5.98792367 -7.4375 8.625 C-8.88962891 9.78902344 -8.88962891 9.78902344 -10.37109375 10.9765625 C-12.19874639 12.38328474 -14.08101319 13.72067546 -16 15 C-15.7707541 11.25789775 -15.05636204 10.05762388 -12.3828125 7.32421875 C-11.30740968 6.43245352 -10.22102407 5.55379538 -9.125 4.6875 C-8.58230469 4.23310547 -8.03960938 3.77871094 -7.48046875 3.31054688 C-3.40824718 0 -3.40824718 0 0 0 Z " fill="#AF17C1" transform="translate(1008,89)"/>
<path d="M0 0 C2.125 0.9375 2.125 0.9375 4 2 C4 2.66 4 3.32 4 4 C4.66 4 5.32 4 6 4 C7.55078125 5.5390625 7.55078125 5.5390625 9.3125 7.625 C9.92867187 8.34945312 10.54484375 9.07390625 11.1796875 9.8203125 C11.78039062 10.53960938 12.38109375 11.25890625 13 12 C13.51820313 12.61617187 14.03640625 13.23234375 14.5703125 13.8671875 C15.71958835 15.23975123 16.8607561 16.6190983 18 18 C17.67 18.66 17.34 19.32 17 20 C15 18.6875 15 18.6875 13 17 C13 16.01 13 15.02 13 14 C12.34 14 11.68 14 11 14 C10.67 13.34 10.34 12.68 10 12 C9.01 11.67 8.02 11.34 7 11 C4.63493157 8.99878825 4.0106678 8.03200339 3 5 C0.49552484 3.78130071 0.49552484 3.78130071 -2 3 C-2 2.34 -2 1.68 -2 1 C-1.34 0.67 -0.68 0.34 0 0 Z " fill="#6C15A0" transform="translate(962,620)"/>
<path d="M0 0 C4.77243732 4.33857938 8.82601251 9.37463312 12 15 C12 16.32 12 17.64 12 19 C11.01 19 10.02 19 9 19 C8.7525 18.071875 8.505 17.14375 8.25 16.1875 C7.29924262 12.92878265 7.29924262 12.92878265 4.875 11.4375 C4.25625 10.963125 3.6375 10.48875 3 10 C2.75 7.3125 2.75 7.3125 3 5 C2.01 4.67 1.02 4.34 0 4 C0 2.68 0 1.36 0 0 Z " fill="#7114A4" transform="translate(927,571)"/>
<path d="M0 0 C5.86809507 0.52393706 10.54873741 1.76108858 16 4 C16 4.66 16 5.32 16 6 C17.134375 6.28875 18.26875 6.5775 19.4375 6.875 C20.613125 7.24625 21.78875 7.6175 23 8 C23.33 8.66 23.66 9.32 24 10 C17.45044429 8.51708173 11.27681633 6.37688265 5 4 C5 3.34 5 2.68 5 2 C3.35 1.67 1.7 1.34 0 1 C0 0.67 0 0.34 0 0 Z " fill="#8F1CB9" transform="translate(1096,719)"/>
<path d="M0 0 C-1.58941406 0.63228516 -1.58941406 0.63228516 -3.2109375 1.27734375 C-4.59897649 1.83068362 -5.98699633 2.38407153 -7.375 2.9375 C-8.07367187 3.21529297 -8.77234375 3.49308594 -9.4921875 3.77929688 C-13.29232246 5.28466196 -13.29232246 5.28466196 -17 7 C-18.70702735 7.06996014 -20.41668003 7.08440154 -22.125 7.0625 C-23.03507812 7.05347656 -23.94515625 7.04445313 -24.8828125 7.03515625 C-25.58148437 7.02355469 -26.28015625 7.01195312 -27 7 C-22.66054404 4.72645434 -18.1536452 3.30405295 -13.5 1.8125 C-12.64535156 1.52697266 -11.79070312 1.24144531 -10.91015625 0.94726562 C-10.08386719 0.68236328 -9.25757813 0.41746094 -8.40625 0.14453125 C-7.65666016 -0.09934326 -6.90707031 -0.34321777 -6.13476562 -0.59448242 C-3.75284976 -1.04694837 -2.28077195 -0.75584472 0 0 Z " fill="#9819B7" transform="translate(1159,10)"/>
<path d="M0 0 C0.33 1.32 0.66 2.64 1 4 C1.66 4 2.32 4 3 4 C3.05418326 6.08304538 3.09287551 8.16649768 3.125 10.25 C3.14820313 11.41015625 3.17140625 12.5703125 3.1953125 13.765625 C3.0103949 16.82786046 2.60823023 18.44202751 1 21 C-0.17426264 18.65147472 -0.11508173 17.26225935 -0.09765625 14.6484375 C-0.09443359 13.79765625 -0.09121094 12.946875 -0.08789062 12.0703125 C-0.07951172 11.18085938 -0.07113281 10.29140625 -0.0625 9.375 C-0.05798828 8.4778125 -0.05347656 7.580625 -0.04882812 6.65625 C-0.03702591 4.43743352 -0.02056155 2.21874982 0 0 Z " fill="#AF15C0" transform="translate(875,389)"/>
<path d="M0 0 C7.6700283 0.4302337 14.65896942 1.74231361 22 4 C21.67 4.99 21.34 5.98 21 7 C20.40574219 6.81824219 19.81148437 6.63648438 19.19921875 6.44921875 C12.82913223 4.51738847 6.42941642 2.72347474 0 1 C0 0.67 0 0.34 0 0 Z " fill="#5D0F97" transform="translate(1157,742)"/>
<path d="M0 0 C5.28 0 10.56 0 16 0 C15.67 1.32 15.34 2.64 15 4 C12.69 3.67 10.38 3.34 8 3 C8 2.34 8 1.68 8 1 C7.13375 1.33 6.2675 1.66 5.375 2 C2.04281725 2.98731341 -0.55159538 3.16420974 -4 3 C-2.68 2.67 -1.36 2.34 0 2 C0 1.34 0 0.68 0 0 Z " fill="#B912C0" transform="translate(1184,4)"/>
<path d="M0 0 C3.55780196 0.60990891 6.6828589 1.5783681 10 3 C10 3.66 10 4.32 10 5 C11.1446875 5.185625 11.1446875 5.185625 12.3125 5.375 C15 6 15 6 18 8 C13.94568308 9.15837626 11.78187881 8.83691257 8 7 C8 6.01 8 5.02 8 4 C6.865625 3.71125 5.73125 3.4225 4.5625 3.125 C3.386875 2.75375 2.21125 2.3825 1 2 C0.67 1.34 0.34 0.68 0 0 Z " fill="#5B129A" transform="translate(1091,718)"/>
<path d="M0 0 C1.32 0 2.64 0 4 0 C4 0.66 4 1.32 4 2 C4.83144531 2.14695312 5.66289063 2.29390625 6.51953125 2.4453125 C15.50600343 4.30017153 15.50600343 4.30017153 18.25 8.1875 C18.4975 9.115625 18.745 10.04375 19 11 C16.08482708 9.92598892 14.22189824 9.22189824 12 7 C10.27500785 6.28396552 8.54964728 5.56876301 6.8203125 4.86328125 C4.21613855 3.62825455 2.15423875 1.8931189 0 0 Z " fill="#8D1CB8" transform="translate(1050,695)"/>
<path d="M0 0 C6.27 0 12.54 0 19 0 C19 0.66 19 1.32 19 2 C20.65 2 22.3 2 24 2 C24 2.33 24 2.66 24 3 C7.1070615 2.03644647 7.1070615 2.03644647 0 1 C0 0.67 0 0.34 0 0 Z " fill="#851AB6" transform="translate(1200,749)"/>
<path d="M0 0 C0 0.99 0 1.98 0 3 C-5.28 2.34 -10.56 1.68 -16 1 C-16 0.67 -16 0.34 -16 0 C-10.49983036 -1.30267176 -5.52967941 -0.71033431 0 0 Z " fill="#8E1CB9" transform="translate(1200,746)"/>
<path d="M0 0 C7.74907749 -0.25830258 7.74907749 -0.25830258 12 2 C13.35047925 2.17674984 14.70564221 2.31929823 16.0625 2.4375 C20 3 20 3 22 4.5625 C22.33 5.036875 22.66 5.51125 23 6 C17.73229802 5.34240251 12.69866827 4.26735876 7.5625 2.9375 C6.83095703 2.75123047 6.09941406 2.56496094 5.34570312 2.37304688 C3.56296802 1.9186242 1.78136213 1.45977534 0 1 C0 0.67 0 0.34 0 0 Z " fill="#871EB7" transform="translate(1152,739)"/>
<path d="M0 0 C6.4188547 1.73624758 12.13784836 3.85180745 18 7 C17.34 8.32 16.68 9.64 16 11 C16 10.34 16 9.68 16 9 C15.34 9 14.68 9 14 9 C14 8.34 14 7.68 14 7 C13.40832031 6.80664062 12.81664062 6.61328125 12.20703125 6.4140625 C8.0853355 5.05585281 4.0049476 3.67949415 0 2 C0 1.34 0 0.68 0 0 Z " fill="#65139F" transform="translate(1072,709)"/>
<path d="M0 0 C5.10971967 1.20228698 7.93172339 2.57408286 12 6 C14.6794645 7.24016669 14.6794645 7.24016669 17 8 C17 8.66 17 9.32 17 10 C13.02712922 9.43244703 10.3546267 8.17597408 7 6 C6.34 5.67 5.68 5.34 5 5 C5 4.34 5 3.68 5 3 C3.68 3 2.36 3 1 3 C0.67 2.01 0.34 1.02 0 0 Z " fill="#6712A0" transform="translate(1055,699)"/>
<path d="M0 0 C1.62996765 3.2599353 -0.04342408 6.03159767 -1.09765625 9.37890625 C-2.23359496 12.67853775 -3.55111164 15.82624455 -5 19 C-5.33 19 -5.66 19 -6 19 C-6.27782996 14.24839524 -5.47137284 11.02978014 -3.5625 6.6875 C-3.11003906 5.63949219 -2.65757812 4.59148437 -2.19140625 3.51171875 C-1 1 -1 1 0 0 Z " fill="#A71ABE" transform="translate(896,249)"/>
<path d="M0 0 C0.66 0 1.32 0 2 0 C2.67404284 2.56076097 3.339414 5.12326583 4 7.6875 C4.19078125 8.40873047 4.3815625 9.12996094 4.578125 9.87304688 C5.54865428 13.66850961 6.24955239 17.04615439 6 21 C3.74982247 17.62473371 2.86995001 14.36925005 1.875 10.5 C1.60236328 9.48486328 1.60236328 9.48486328 1.32421875 8.44921875 C0.56317822 5.54810937 0 3.0122546 0 0 Z " fill="#981BBA" transform="translate(884,464)"/>
<path d="M0 0 C0.66 0 1.32 0 2 0 C1.67 2.64 1.34 5.28 1 8 C1.66 8 2.32 8 3 8 C2.6875 9.9375 2.6875 9.9375 2 12 C1.01 12.33 0.02 12.66 -1 13 C-1.0272415 11.58344207 -1.04650467 10.16672955 -1.0625 8.75 C-1.07410156 7.96109375 -1.08570313 7.1721875 -1.09765625 6.359375 C-1.00385306 4.09308998 -0.63241063 2.1711105 0 0 Z " fill="#AA19BF" transform="translate(877,324)"/>
<path d="M0 0 C0.99 0.33 1.98 0.66 3 1 C1.90453883 2.48562542 0.79831177 3.96331709 -0.3125 5.4375 C-0.92738281 6.26121094 -1.54226563 7.08492188 -2.17578125 7.93359375 C-4 10 -4 10 -7 11 C-5.5140084 6.40693504 -3.14985318 3.56430755 0 0 Z " fill="#B814C2" transform="translate(975,118)"/>
<path d="M0 0 C1.41805831 0.28482368 2.83440379 0.57818144 4.25 0.875 C5.03890625 1.03742187 5.8278125 1.19984375 6.640625 1.3671875 C8.96831144 1.99150075 10.89031952 2.84838542 13 4 C13 5.65 13 7.3 13 9 C12.34 9 11.68 9 11 9 C11 8.01 11 7.02 11 6 C10.18595703 5.72736328 10.18595703 5.72736328 9.35546875 5.44921875 C8.64003906 5.19785156 7.92460938 4.94648437 7.1875 4.6875 C6.47980469 4.44386719 5.77210937 4.20023438 5.04296875 3.94921875 C2.85527627 2.93275742 1.59103282 1.79179406 0 0 Z " fill="#5D129B" transform="translate(1109,726)"/>
<path d="M0 0 C-1.0828125 0.61875 -1.0828125 0.61875 -2.1875 1.25 C-5.06218775 2.95660009 -5.06218775 2.95660009 -7.6875 5.1875 C-10 7 -10 7 -12 7 C-11.4375 4.6875 -11.4375 4.6875 -10 2 C-3.93103448 -1.31034483 -3.93103448 -1.31034483 0 0 Z " fill="#AE17C0" transform="translate(1058,54)"/>
<path d="M0 0 C8.57142857 -0.28571429 8.57142857 -0.28571429 12 2 C12 2.33 12 2.66 12 3 C8.04 3 4.08 3 0 3 C0 2.01 0 1.02 0 0 Z " fill="#5C119C" transform="translate(1144,739)"/>
<path d="M0 0 C1.65 0 3.3 0 5 0 C4.01 0.495 4.01 0.495 3 1 C3 1.66 3 2.32 3 3 C3.66 3 4.32 3 5 3 C4.67 4.32 4.34 5.64 4 7 C3.01 7 2.02 7 1 7 C0.67 4.69 0.34 2.38 0 0 Z " fill="#A035D6" transform="translate(920,373)"/>
<path d="M0 0 C-3.69172595 3.53790403 -7.09390595 3.59115883 -12 4 C-8.7771058 -0.8343413 -5.44718932 -0.10277716 0 0 Z " fill="#65109C" transform="translate(1106,26)"/>
<path d="M0 0 C2.875 0.3125 2.875 0.3125 6 1 C6.66 1.99 7.32 2.98 8 4 C10.05003955 5.19232613 10.05003955 5.19232613 12 6 C12 6.66 12 7.32 12 8 C7.44328408 6.48109469 3.68276708 4.04597738 0 1 C0 0.67 0 0.34 0 0 Z " fill="#8C1AB7" transform="translate(1034,684)"/>
<path d="M0 0 C-2.99007901 1.661155 -5.66483813 2.33296763 -9 3 C-11.23408113 3.99083967 -11.23408113 3.99083967 -13 5 C-13.99 4.34 -14.98 3.68 -16 3 C-4.65263158 -2.32631579 -4.65263158 -2.32631579 0 0 Z " fill="#B414C2" transform="translate(1162,11)"/>
<path d="M0 0 C0.33 0 0.66 0 1 0 C1.125 6.75 1.125 6.75 0 9 C-0.66 9 -1.32 9 -2 9 C-2.33 10.32 -2.66 11.64 -3 13 C-2.52060632 8.28596212 -2.03165952 4.33420699 0 0 Z " fill="#991ABA" transform="translate(883,291)"/>
<path d="M0 0 C2.0625 0.4375 2.0625 0.4375 4 1 C2.6875 3.5 2.6875 3.5 1 6 C0.01 6 -0.98 6 -2 6 C-1.125 1.125 -1.125 1.125 0 0 Z " fill="#4F1A96" transform="translate(1074,34)"/>
<path d="M0 0 C0.99 0.495 0.99 0.495 2 1 C2.625 3.5625 2.625 3.5625 3 6 C3.99 6.33 4.98 6.66 6 7 C6.33 8.65 6.66 10.3 7 12 C1.33064516 6.62903226 1.33064516 6.62903226 0 3 C0 2.01 0 1.02 0 0 Z " fill="#7C17A9" transform="translate(918,554)"/>
<path d="M0 0 C0.66 0.66 1.32 1.32 2 2 C1.02526874 3.66926454 0.04510211 5.33535642 -0.9375 7 C-1.48277344 7.928125 -2.02804687 8.85625 -2.58984375 9.8125 C-3.05519531 10.534375 -3.52054688 11.25625 -4 12 C-4.33 12 -4.66 12 -5 12 C-5.25 9.75 -5.25 9.75 -5 7 C-3.0625 4.875 -3.0625 4.875 -1 3 C-0.67 2.01 -0.34 1.02 0 0 Z " fill="#AD18C2" transform="translate(921,193)"/>
<path d="M0 0 C0.33 0.66 0.66 1.32 1 2 C0.08189308 4.67085649 -0.55583997 5.75773089 -3.0625 7.125 C-3.701875 7.41375 -4.34125 7.7025 -5 8 C-5.33 8.66 -5.66 9.32 -6 10 C-6.66 9.67 -7.32 9.34 -8 9 C-7.34 8.01 -6.68 7.02 -6 6 C-5.34 6 -4.68 6 -4 6 C-3.566875 4.7934375 -3.566875 4.7934375 -3.125 3.5625 C-2 1 -2 1 0 0 Z " fill="#931AB6" transform="translate(965,128)"/>
<path d="M0 0 C0.33 0 0.66 0 1 0 C1 1.98 1 3.96 1 6 C0.01 6.495 0.01 6.495 -1 7 C-1.65772428 10.02934491 -1.65772428 10.02934491 -2 13 C-2.33 13 -2.66 13 -3 13 C-3.14285714 5.57142857 -3.14285714 5.57142857 -2 2 C-1.34 2 -0.68 2 0 2 C0 1.34 0 0.68 0 0 Z " fill="#AD17C1" transform="translate(883,298)"/>
<path d="M0 0 C0.598125 0.226875 1.19625 0.45375 1.8125 0.6875 C-0.85416667 3.35416667 -3.52083333 6.02083333 -6.1875 8.6875 C-5.58623418 3.27610759 -5.58623418 3.27610759 -3.875 0.75 C-2.1875 -0.3125 -2.1875 -0.3125 0 0 Z " fill="#AD19C1" transform="translate(954.1875,144.3125)"/>
<path d="M0 0 C0.66 0.33 1.32 0.66 2 1 C-3.78571429 5.82142857 -3.78571429 5.82142857 -7 7 C-7.99 6.67 -8.98 6.34 -10 6 C-2.83146067 1.11235955 -2.83146067 1.11235955 0 0 Z " fill="#5D1299" transform="translate(1057,48)"/>
<path d="M0 0 C1.60568666 0.28317926 3.20952047 0.57687791 4.8125 0.875 C6.15248047 1.11863281 6.15248047 1.11863281 7.51953125 1.3671875 C10 2 10 2 13 4 C11.68 4.33 10.36 4.66 9 5 C9 4.34 9 3.68 9 3 C6.03 3 3.06 3 0 3 C0 2.01 0 1.02 0 0 Z " fill="#62129E" transform="translate(1128,733)"/>
<path d="M0 0 C1.32 0.33 2.64 0.66 4 1 C3.34 1 2.68 1 2 1 C1.67 1.99 1.34 2.98 1 4 C-1.97 4 -4.94 4 -8 4 C-4 2 -4 2 0 2 C0 1.34 0 0.68 0 0 Z " fill="#991AB8" transform="translate(1128,17)"/>
<path d="M0 0 C0.99 0 1.98 0 3 0 C3.268125 0.639375 3.53625 1.27875 3.8125 1.9375 C4.88667752 4.33131686 4.88667752 4.33131686 8 5 C7.67 5.99 7.34 6.98 7 8 C7 7.34 7 6.68 7 6 C6.401875 5.896875 5.80375 5.79375 5.1875 5.6875 C2.68741714 4.90175967 1.62464918 4.03081147 0 2 C0 1.34 0 0.68 0 0 Z " fill="#8E1DBA" transform="translate(1000,656)"/>
<path d="M0 0 C0.66 0 1.32 0 2 0 C1.45773019 3.79588866 -0.20127563 5.47211993 -3 8 C-1.125 1.125 -1.125 1.125 0 0 Z " fill="#7B14A8" transform="translate(926,179)"/>
<path d="M0 0 C0.33 1.32 0.66 2.64 1 4 C0.01 4.33 -0.98 4.66 -2 5 C-3.21869929 7.50447516 -3.21869929 7.50447516 -4 10 C-4.33 9.34 -4.66 8.68 -5 8 C-4.00390625 6.0546875 -4.00390625 6.0546875 -2.5625 3.875 C-2.08941406 3.15054688 -1.61632812 2.42609375 -1.12890625 1.6796875 C-0.75636719 1.12539062 -0.38382813 0.57109375 0 0 Z " fill="#991DBC" transform="translate(940,160)"/>
<path d="M0 0 C1.32 0.33 2.64 0.66 4 1 C1.375 5.875 1.375 5.875 -2 7 C-1.34 4.69 -0.68 2.38 0 0 Z " fill="#63169B" transform="translate(960,128)"/>
<path d="M0 0 C2.625 -0.1875 2.625 -0.1875 5 0 C5 0.99 5 1.98 5 3 C2.69 3 0.38 3 -2 3 C-1.34 2.01 -0.68 1.02 0 0 Z " fill="#431B90" transform="translate(1163,2)"/>
<path d="M0 0 C3.55780196 0.60990891 6.6828589 1.5783681 10 3 C8.375 3.6875 8.375 3.6875 6 4 C2.75 2.5625 2.75 2.5625 0 1 C0 0.67 0 0.34 0 0 Z " fill="#6D12A1" transform="translate(1091,718)"/>
<path d="M0 0 C2.475 0.495 2.475 0.495 5 1 C5 1.66 5 2.32 5 3 C3.02 3.99 3.02 3.99 1 5 C0.67 3.35 0.34 1.7 0 0 Z " fill="#561C92" transform="translate(1008,668)"/>
<path d="M0 0 C0.33 0.66 0.66 1.32 1 2 C-1.31 3.65 -3.62 5.3 -6 7 C-6 6.01 -6 5.02 -6 4 C-3 1.8125 -3 1.8125 0 0 Z " fill="#B417C2" transform="translate(989,106)"/>
<path d="M0 0 C0.99 0.33 1.98 0.66 3 1 C2.34 1 1.68 1 1 1 C0.67 2.65 0.34 4.3 0 6 C-1.32 5.67 -2.64 5.34 -4 5 C-2.68 3.35 -1.36 1.7 0 0 Z " fill="#B814C2" transform="translate(1024,74)"/>
<path d="M0 0 C0 0.66 0 1.32 0 2 C-2.375 3.0625 -2.375 3.0625 -5 4 C-5.66 3.67 -6.32 3.34 -7 3 C-7 2.34 -7 1.68 -7 1 C-4.50935112 0.31292445 -2.62113708 0 0 0 Z " fill="#B913C5" transform="translate(1075,44)"/>
<path d="M0 0 C-0.99 1.485 -0.99 1.485 -2 3 C-3.32 3 -4.64 3 -6 3 C-6 2.01 -6 1.02 -6 0 C-3.50907189 -1.24546405 -2.58919267 -0.7767578 0 0 Z " fill="#B015C3" transform="translate(1136,18)"/>
</svg>
